<?xml version="1.0" standalone="no"?><!DOCTYPE svg PUBLIC "-//W3C//DTD SVG 1.1//EN"
    "http://www.w3.org/Graphics/SVG/1.1/DTD/svg11.dtd">
<svg t="1745139688604" class="icon" viewBox="0 0 1024 1024" version="1.1" xmlns="http://www.w3.org/2000/svg" p-id="9173"
     width="200" height="200">
    <path
        d="M252.606 642.584H96.948c-34.736 0-62.994 28.258-62.994 62.994v208.048c0 34.736 28.258 62.994 62.994 62.994h208.048c34.684 0 62.942-28.258 62.942-62.994v-149.494c-49.36-28.256-89.634-70.618-115.332-121.548zM927.054 642.584h-155.71c-25.646 50.928-65.92 93.29-115.28 121.55v149.494c0 34.736 28.206 62.994 62.942 62.994h208.048c34.736 0 62.994-28.258 62.994-62.994V705.58c0-34.736-28.258-62.996-62.994-62.996zM304.996 47.376H96.948c-34.736 0-62.994 28.258-62.994 62.994V318.42c0 34.736 28.258 62.994 62.994 62.994h155.658c25.7-50.98 65.972-93.29 115.334-121.602v-149.44c-0.002-34.736-28.26-62.996-62.944-62.996z"
        fill="#FFD452" p-id="9174"></path>
    <path
        d="M78.352 164.88h15.67v-15.67h-15.67v15.67z m0 62.682h15.67v-15.67h-15.67v15.67z m0-31.34h15.67v-15.67h-15.67v15.67z m0-63.634v0.952h15.67v-0.952c0-3.804 0.824-7.454 2.452-10.848l-14.13-6.774a40.448 40.448 0 0 0-3.992 17.622z m82.064-25.142h15.67v-15.67h-15.67v15.67z m31.34-15.67v15.67h15.67v-15.67h-15.67z m-97.28 8.312l9.482 12.472a25.18 25.18 0 0 1 10.832-4.736l-2.708-15.436a40.9 40.9 0 0 0-17.606 7.7z m34.6 7.358h15.67v-15.67h-15.67v15.67z"
        fill="#4A555F" p-id="9175"></path>
    <path
        d="M927.054 47.376H719.004c-34.736 0-62.942 28.258-62.942 62.994v149.442c49.362 28.312 89.634 70.62 115.28 121.602h155.71c34.736 0 62.994-28.258 62.994-62.994V110.372c0.002-34.736-28.256-62.996-62.992-62.996z"
        fill="#FFD452" p-id="9176"></path>
    <path
        d="M397.238 770.19a293 293 0 0 1-25.408-12.856c-48.338-27.674-87.146-68.572-112.232-118.29a276.6 276.6 0 0 1-11.278-25.398l-1.934-5.014H96.948C43.492 608.632 0 652.124 0 705.58v208.05c0 53.456 43.492 96.946 96.948 96.946h208.05c53.428 0 96.894-43.49 96.894-96.946V772.26l-4.654-2.07z m-11.018 143.438c0 44.818-36.436 81.276-81.224 81.276H96.948c-44.818 0-81.276-36.458-81.276-81.276V705.58c0-44.818 36.46-81.276 81.276-81.276h138.74a292.63 292.63 0 0 0 9.924 21.812c26.472 52.456 67.424 95.618 118.458 124.832 7.328 4.162 14.756 8 22.152 11.446v131.234zM927.052 608.632h-149.486l-1.936 5.014a277.558 277.558 0 0 1-11.286 25.414c-25.02 49.688-63.808 90.586-112.15 118.262a292.764 292.764 0 0 1-25.432 12.87l-4.652 2.068v141.37c0 53.456 43.466 96.946 96.894 96.946h208.05c53.456 0 96.948-43.49 96.948-96.946V705.58c-0.002-53.456-43.494-96.948-96.95-96.948z m81.278 304.996c0 44.818-36.46 81.276-81.276 81.276H719.004c-44.786 0-81.224-36.458-81.224-81.276v-131.236a312.288 312.288 0 0 0 22.174-11.46c51.04-29.218 91.978-72.384 118.378-124.808a292.53 292.53 0 0 0 9.93-21.822h138.79c44.818 0 81.276 36.46 81.276 81.276v208.05zM304.996 13.424H96.948C43.492 13.424 0 56.916 0 110.372v208.046c0 53.456 43.492 96.946 96.948 96.946h149.466l1.92-5.052c3.15-8.292 6.94-16.824 11.268-25.374 25.034-49.658 63.842-90.576 112.204-118.314a293.018 293.018 0 0 1 25.43-12.87l4.652-2.068V110.372c0.002-53.456-43.464-96.948-96.892-96.948z m81.224 228.13a313.736 313.736 0 0 0-22.18 11.462c-51.062 29.284-92.012 72.464-118.424 124.856a286.662 286.662 0 0 0-9.946 21.822H96.948c-44.818 0-81.276-36.458-81.276-81.276V110.372c0-44.818 36.46-81.278 81.276-81.278h208.05c44.786 0 81.224 36.46 81.224 81.278v131.182zM927.052 13.424H719.004c-53.428 0-96.894 43.492-96.894 96.948v141.316l4.652 2.068a292.618 292.618 0 0 1 25.404 12.854c48.416 27.77 87.206 68.684 112.186 118.344 4.322 8.536 8.114 17.068 11.262 25.36l1.92 5.052h149.518c53.456 0 96.948-43.49 96.948-96.946V110.372c0-53.456-43.492-96.948-96.948-96.948z m81.278 304.994c0 44.818-36.46 81.276-81.276 81.276H788.28a284.956 284.956 0 0 0-9.94-21.804c-26.354-52.39-67.29-95.572-118.41-124.89-7.328-4.16-14.758-8-22.15-11.448v-131.18c0-44.818 36.436-81.278 81.224-81.278h208.05c44.818 0 81.276 36.46 81.276 81.278v208.046z"
        fill="#4A555F" p-id="9177"></path>
    <path
        d="M911.908 92.388l-2.708 15.436a25.18 25.18 0 0 1 10.832 4.736l9.482-12.472a40.9 40.9 0 0 0-17.606-7.7z m-95.346 15.058h15.67v-15.67h-15.67v15.67z m31.342 0h15.67v-15.67h-15.67v15.67z m31.34 0h15.67v-15.67h-15.67v15.67z m50.724 57.434h15.67v-15.67h-15.67v15.67z m11.678-49.912l-14.13 6.774a24.894 24.894 0 0 1 2.45 10.848v0.952h15.67v-0.952a40.406 40.406 0 0 0-3.99-17.622z m-11.678 81.254h15.67v-15.67h-15.67v15.67z m0 31.34h15.67v-15.67h-15.67v15.67zM909.21 915.398l2.698 15.436a40.812 40.812 0 0 0 17.612-7.7l-9.488-12.472a25.112 25.112 0 0 1-10.822 4.736z m-29.964 16.05h15.67v-15.67h-15.67v15.67z m-31.34 0h15.67v-15.67h-15.67v15.67z m-31.34 0h15.67v-15.67h-15.67v15.67z m113.402-135.788v15.67h15.67v-15.67h-15.67z m0 47.01h15.67V827h-15.67v15.67z m0 31.342h15.67v-15.67h-15.67v15.67z m0 16.624c0 3.802-0.824 7.45-2.45 10.844l14.13 6.774a40.43 40.43 0 0 0 3.992-17.62v-0.954h-15.67v0.956zM94.022 858.342h-15.67v15.67h15.67v-15.67z m0-31.342h-15.67v15.67h15.67V827z m0-31.34h-15.67v15.67h15.67v-15.67z m0 94.976v-0.954h-15.67v0.954c0 6.164 1.342 12.092 3.992 17.62l14.13-6.774a24.884 24.884 0 0 1-2.452-10.846z m97.732 25.142v15.67h15.67v-15.67h-15.67z m-97.284 7.356a40.816 40.816 0 0 0 17.61 7.7l2.698-15.436a25.112 25.112 0 0 1-10.822-4.736l-9.486 12.472z m65.944 8.314h15.67v-15.67h-15.67v15.67z m-31.34 0h15.67v-15.67h-15.67v15.67z"
        fill="#4A555F" p-id="9178"></path>
    <path
        d="M511.996 270.154c-133.354 0-241.844 108.49-241.844 241.842 0 133.352 108.49 241.842 241.844 241.842 133.352 0 241.842-108.49 241.842-241.842 0-133.35-108.49-241.842-241.842-241.842z"
        fill="#71CCE0" p-id="9179"></path>
    <path
        d="M396.334 531.192l-15.462 2.546a132.372 132.372 0 0 0 3.732 16.218l15.018-4.468a118 118 0 0 1-3.288-14.296z m-1.562-19.196c0-3.376 0.142-6.77 0.428-10.092l-15.614-1.336a134.676 134.676 0 0 0-0.384 16.62l15.66-0.592a121.526 121.526 0 0 1-0.09-4.6z m9.91 47.256l-14.334 6.33a133.42 133.42 0 0 0 7.654 14.76l13.43-8.07a118.502 118.502 0 0 1-6.75-13.02z m-3.358-85.998l-14.794-5.172a132.54 132.54 0 0 0-4.496 16.038l15.324 3.27a116.5 116.5 0 0 1 3.966-14.136z m6.116 120.782a134.39 134.39 0 0 0 11.064 12.41l11.028-11.136a118.744 118.744 0 0 1-9.774-10.956l-12.318 9.682z m23.59 23.352a133.392 133.392 0 0 0 13.798 9.306l7.93-13.518a117.66 117.66 0 0 1-12.168-8.204l-9.56 12.416z m198.14-108.792l15.666-0.438a134.064 134.064 0 0 0-1.502-16.566l-15.486 2.382c0.74 4.826 1.186 9.746 1.322 14.622zM414.4 447.04l-13.038-8.692a133.954 133.954 0 0 0-8.35 14.396l14.022 6.998a118.124 118.124 0 0 1 7.366-12.702z m210.296 32.606l15.062-4.32a133.104 133.104 0 0 0-5.58-15.676l-14.406 6.172a117.202 117.202 0 0 1 4.924 13.824z m-191.126-54.776l-10.498-11.636a134.928 134.928 0 0 0-11.632 11.876l11.85 10.254a118.36 118.36 0 0 1 10.28-10.494z m193.1 19.926a132.86 132.86 0 0 0-9.308-13.796l-12.416 9.564a117.136 117.136 0 0 1 8.21 12.164l13.514-7.932z m-103.356 183.886l1.488 15.598a132.506 132.506 0 0 0 16.434-2.62l-3.432-15.288a117.4 117.4 0 0 1-14.49 2.31z m76.602-39.15l11.742 10.376a133.58 133.58 0 0 0 10.214-13.134l-12.946-8.83a118.484 118.484 0 0 1-9.01 11.588z m-21.97 19.388l8.826 12.952a133.48 133.48 0 0 0 13.132-10.21l-10.372-11.748a117.468 117.468 0 0 1-11.586 9.006z m-26.064 13.342l5.332 14.738a132.134 132.134 0 0 0 15.262-6.64l-7.142-13.946a117.34 117.34 0 0 1-13.452 5.848z m64.536-56.944l13.952 7.14a133.1 133.1 0 0 0 6.636-15.272l-14.736-5.326a117.3 117.3 0 0 1-5.852 13.458z m-180.316-162.43l8.958 12.86a117.04 117.04 0 0 1 12.542-7.62l-7.29-13.876a134.276 134.276 0 0 0-14.21 8.636z m190.274 134.878l15.288 3.434a133.16 133.16 0 0 0 2.616-16.43l-15.598-1.49a117.678 117.678 0 0 1-2.306 14.486z m-160.866-150.306l5.478 14.68a117.502 117.502 0 0 1 14.042-4.256l-3.596-15.252a133.466 133.466 0 0 0-15.924 4.828z m-5.824 246.742a133.26 133.26 0 0 0 15.69 5.58l4.31-15.068a116.594 116.594 0 0 1-13.83-4.918l-6.17 14.406z m31.948 9.138c5.454 0.838 11.026 1.344 16.562 1.5l0.438-15.666a117.796 117.796 0 0 1-14.62-1.322l-2.38 15.488zM528.8 395.97c4.832 0.694 9.668 1.7 14.372 2.992l4.152-15.11a133.43 133.43 0 0 0-16.294-3.394l-2.23 15.512z m-30.96-16.122l1.652 15.584a119.212 119.212 0 0 1 12.502-0.658l2.18 0.02 0.26-15.67-2.44-0.02a133.84 133.84 0 0 0-14.154 0.744zM511.996 437.27v15.67c32.564 0 59.056 26.492 59.056 59.056 0 32.564-26.492 59.06-59.056 59.06-32.564 0-59.058-26.494-59.058-59.06h-15.67c0 41.206 33.522 74.73 74.728 74.73 41.206 0 74.726-33.524 74.726-74.73s-33.522-74.726-74.726-74.726z"
        fill="#4A555F" p-id="9180"></path>
    <path
        d="M511.996 323.844c-103.748 0-188.152 84.406-188.152 188.152 0 43.048 14.91 85.128 41.984 118.486l12.166-9.876c-24.814-30.576-38.48-69.146-38.48-108.61 0-95.108 77.374-172.482 172.482-172.482s172.482 77.374 172.482 172.482-77.374 172.486-172.482 172.486v15.67c103.746 0 188.152-84.406 188.152-188.156 0-103.746-84.406-188.152-188.152-188.152z"
        fill="#4A555F" p-id="9181"></path>
    <path
        d="M511.996 213.818c-164.416 0-298.18 133.764-298.18 298.178 0 164.416 133.764 298.178 298.18 298.178s298.178-133.764 298.178-298.178-133.764-298.178-298.178-298.178z m0 580.686c-155.778 0-282.508-126.732-282.508-282.508 0-155.776 126.732-282.508 282.508-282.508 155.776 0 282.508 126.732 282.508 282.508-0.002 155.776-126.732 282.508-282.508 282.508z"
        fill="#4A555F" p-id="9182"></path>
</svg>
