<svg t="1604459084130" class="icon" viewBox="0 0 1024 1024" version="1.1" xmlns="http://www.w3.org/2000/svg" p-id="38693" width="260" height="260"><path d="M585.142857 647.094857l20.845714-9.874286a219.428571 219.428571 0 1 0-188.050285 0l20.918857 9.874286V731.428571h146.285714v-84.333714zM658.285714 804.571429h-292.571428v-112.274286a292.571429 292.571429 0 1 1 292.571428 0V804.571429z m-219.428571 73.142857h146.285714v73.142857h-146.285714v-73.142857z" fill="#ffffff" p-id="38694"></path><path d="M365.714286 292.571429m146.285714 0l0 0q146.285714 0 146.285714 146.285714l0 0q0 146.285714-146.285714 146.285714l0 0q-146.285714 0-146.285714-146.285714l0 0q0-146.285714 146.285714-146.285714Z" fill="#ffffff" opacity=".5" p-id="38695"></path></svg>
