<svg t="1604398664370" class="icon" viewBox="0 0 1024 1024" version="1.1" xmlns="http://www.w3.org/2000/svg" p-id="3439" width="260" height="260"><path d="M670.101504 514.308096c0 86.929408-70.47168 157.40416-157.403136 157.40416-86.93248 0-157.40416-70.474752-157.40416-157.40416 0-86.93248 70.47168-157.40416 157.40416-157.40416C599.629824 356.903936 670.101504 427.375616 670.101504 514.308096zM512.698368 287.315968c-125.365248 0-226.992128 101.627904-226.992128 226.992128 0 125.365248 101.627904 226.992128 226.992128 226.992128 125.367296 0 226.992128-101.62688 226.992128-226.992128C739.690496 388.942848 638.065664 287.315968 512.698368 287.315968z" p-id="3440" fill="#ffffff"></path><path d="M556.36992 207.320064c0 24.000512-19.464192 43.456512-43.456512 43.456512-23.996416 0-43.456512-19.456-43.456512-43.456512s19.460096-43.456512 43.456512-43.456512C536.905728 163.863552 556.36992 183.319552 556.36992 207.320064z" p-id="3441" fill="#ffffff"></path><path d="M295.776256 297.081856m-42.113024 0a41.126 41.126 0 1 0 84.226048 0 41.126 41.126 0 1 0-84.226048 0Z" p-id="3442" fill="#ffffff"></path><path d="M205.710336 471.983104c24.000512 0 43.456512 18.853888 43.456512 42.112 0 23.251968-19.456 42.110976-43.456512 42.113024-24.000512 0-43.456512-18.857984-43.456512-42.113024C162.253824 490.836992 181.709824 471.983104 205.710336 471.983104z" p-id="3443" fill="#ffffff"></path><path d="M265.694208 701.45024c16.447488-16.446464 43.111424-16.44544 59.557888 0 16.443392 16.44544 16.444416 43.116544 0 59.553792-16.448512 16.449536-43.112448 16.448512-59.557888 0C249.250816 744.567808 249.249792 717.897728 265.694208 701.45024z" p-id="3444" fill="#ffffff"></path><path d="M470.372352 821.297152c0-23.26016 18.854912-42.109952 42.112-42.110976 23.251968 0 42.108928 18.850816 42.112 42.110976 0 23.258112-18.85696 42.110976-42.112 42.110976C489.227264 863.409152 470.372352 844.555264 470.372352 821.297152z" p-id="3445" fill="#ffffff"></path><path d="M698.892288 761.311232c-16.9728-16.443392-16.971776-43.114496 0-59.552768 16.965632-16.447488 44.485632-16.449536 61.453312 0 16.974848 16.438272 16.970752 43.1104 0 59.552768C743.384064 777.759744 715.860992 777.759744 698.892288 761.311232z" p-id="3446" fill="#ffffff"></path><path d="M819.6864 556.634112c-23.258112 0-42.108928-18.857984-42.109952-42.112 0-23.252992 18.85184-42.110976 42.109952-42.112 23.258112 0 42.109952 18.857984 42.112 42.112C861.7984 537.776128 842.944512 556.632064 819.6864 556.634112z" p-id="3447" fill="#ffffff"></path><path d="M759.70048 327.163904c-16.441344 16.446464-43.114496 16.444416-59.549696 0-16.448512-16.443392-16.451584-43.108352 0-59.556864 16.4352-16.444416 43.109376-16.442368 59.549696 0C776.148992 284.05248 776.148992 310.718464 759.70048 327.163904z" p-id="3448" fill="#ffffff"></path></svg>
