<?xml version="1.0" encoding="UTF-8"?>
<svg width="44px" height="44px" viewBox="0 0 44 44" version="1.1" xmlns="http://www.w3.org/2000/svg" xmlns:xlink="http://www.w3.org/1999/xlink">
    <g id="a" stroke="none" stroke-width="1" fill="none" fill-rule="evenodd">
        <g id="a" transform="translate(-1191.000000, -964.000000)">
            <g id="a" transform="translate(1081.000000, 903.000000)">
                <g id="file-image" transform="translate(110.000000, 61.000000)">
                    <rect id="矩形" fill="#000000" fill-rule="nonzero" opacity="0" x="0" y="0" width="44" height="44"></rect>
                    <path d="M26.9457364,3.06976744 L37.8604651,14.179402 L37.8604651,37.7873754 C37.8604651,40.0882561 36.0279562,41.9534884 33.7674419,41.9534884 L11.255814,41.9534884 C8.99529963,41.9534884 7.1627907,40.0882561 7.1627907,37.7873754 L7.1627907,7.2358804 C7.1627907,4.93499975 8.99529963,3.06976744 11.255814,3.06976744 L26.9457364,3.06976744 Z M25.0902326,20.8951761 C24.9823123,20.8180916 24.8486307,20.7880338 24.7188509,20.8116723 C24.5890712,20.8353108 24.4739264,20.9106905 24.3989664,21.0210853 L19.9712248,27.503557 L18.1393695,24.8076191 C18.0470298,24.6711727 17.8946645,24.5896821 17.7318863,24.5896821 C17.5691082,24.5896821 17.4167428,24.6711727 17.3244031,24.8076191 L13.8098605,29.9754507 C13.7048551,30.1295751 13.6926903,30.3303237 13.7782913,30.4964146 C13.8638924,30.6625055 14.0330771,30.766421 14.2173437,30.7660872 L30.9223359,30.7660872 C31.1062757,30.7657321 31.2748414,30.6615503 31.359991,30.4955944 C31.4451407,30.3296384 31.4328191,30.1293018 31.328,29.9754507 L25.2157519,21.0210853 C25.1816513,20.9718086 25.1391373,20.9291626 25.0902326,20.8951761 L25.0902326,20.8951761 Z M17.9774677,19.0398671 C17.4738863,19.0133715 16.9970081,19.2717566 16.7374012,19.7117677 C16.4777943,20.1517789 16.4777943,20.7016608 16.7374012,21.1416719 C16.9970081,21.5816831 17.4738863,21.8400682 17.9774677,21.8135726 C18.7026321,21.7754184 19.2713782,21.165819 19.2713782,20.4267198 C19.2713782,19.6876206 18.7026321,19.0780212 17.9774677,19.0398671 Z" id="形状" fill="#D9D9D9"></path>
                    <path d="M26.6046512,3.06976744 L26.6046512,11.5116279 C26.6046512,13.0657315 27.8645011,14.3255814 29.4186047,14.3255814 L37.8604651,14.3255814 L26.6046512,3.06976744 Z" id="路径" fill="#E8E8E8"></path>
                </g>
            </g>
        </g>
    </g>
</svg>
