<svg xmlns="http://www.w3.org/2000/svg" viewBox="-399 401 200 200"><linearGradient id="a" gradientUnits="userSpaceOnUse" x1="-788.795" y1="994.438" x2="-789.398" y2="992.027" gradientTransform="matrix(53.4167 0 0 -51.6667 41861.836 51802.996)"><stop offset="0" stop-color="#fa8e7d"/><stop offset=".513" stop-color="#f74a5c"/><stop offset="1" stop-color="#f51d2c"/></linearGradient><path d="M-276.6 522.6l-4.4-10h-37.3l-4.4 10.3c-1.7 4-3.2 6.7-4.4 8.1-1.2 1.3-3.2 2.1-6 2.1-2.4 0-4.4-.8-6.3-2.3-1.9-1.5-2.7-3.2-2.7-5.1 0-1.1.3-2.3.7-3.3s1.1-2.8 2.1-4.8l23.5-51.9c.7-1.5 1.5-3.3 2.4-5.3.9-2.1 2-3.9 3.1-5.2 1.1-1.3 2.5-2.5 4.3-3.3 1.7-.8 3.9-1.3 6.4-1.3s4.8.4 6.5 1.3c1.7.8 3.2 2 4.3 3.3 1.1 1.3 2 2.8 2.7 4.4.7 1.6 1.6 3.6 2.8 6.1l24 51.6c1.9 3.9 2.8 6.8 2.8 8.5 0 1.9-.9 3.6-2.7 5.1-1.7 1.6-3.9 2.3-6.4 2.3-1.5 0-2.7-.3-3.7-.7-1.1-.4-1.9-1.1-2.7-1.9-.7-.8-1.5-2-2.3-3.6-1.1-1.7-1.8-3.2-2.3-4.4zm-36.9-22.3h27.5l-13.9-32.9-13.6 32.9z" fill="url(#a)"/><linearGradient id="b" gradientUnits="userSpaceOnUse" x1="-787.55" y1="995.484" x2="-787.682" y2="992.876" gradientTransform="matrix(46.4786 0 0 -58.25 36365.25 58375.25)"><stop offset="0" stop-color="#fa816e"/><stop offset=".415" stop-color="#f74a5c"/><stop offset="1" stop-color="#f51d2c"/></linearGradient><path d="M-217.9 428.7l-45.1-16c-1.3-.7-2.8-.9-4.4-.9-5.9 0-10.7 4.8-10.7 10.7 0 4.7 3.1 8.7 7.3 10.1l45.7 16.3-4.5 42.3c-.3 1.1-.5 2.1-.5 3.2 0 5.9 4.8 10.7 10.7 10.7 5.6 0 10.1-4.3 10.7-9.6h.3l4.7-44.4c.8-9.8-4.9-19-14.2-22.4z" fill="url(#b)"/><linearGradient id="c" gradientUnits="userSpaceOnUse" x1="-794.195" y1="997.807" x2="-793.354" y2="998.141" gradientTransform="matrix(114.0794 0 0 -125 90237.64 125252)"><stop offset="0" stop-color="#4285eb"/><stop offset="1" stop-color="#2ec7ff"/></linearGradient><path d="M-213.1 533.3c.3-.9.4-2 .4-2.9 0-5.9-4.8-10.7-10.7-10.7-5.9 0-10.7 4.8-10.7 10.7 0 .5 0 1.2.1 1.7l-1.5 14-64 33.5-64-33.5-10.4-97.3 74.4-26.4h.1v-.1c5.2-.7 9.2-5.2 9.2-10.5 0-5.9-4.8-10.7-10.7-10.7-1.7 0-3.3.4-4.7 1.1l-.1-.3-75.3 26.9c-9.3 3.3-15.1 12.5-14 22.4l10.4 97.3c.8 7.1 4.9 13.3 11.3 16.7l64 33.5c6.1 3.2 13.6 3.2 19.7 0l64-33.5c6.3-3.3 10.5-9.6 11.3-16.7l1.6-14.9-.4-.3z" fill="url(#c)"/><linearGradient id="d" gradientUnits="userSpaceOnUse" x1="-794.257" y1="998.207" x2="-793.292" y2="996.814" gradientTransform="matrix(114.0794 0 0 -111.4652 90237.64 111703.633)"><stop offset="0" stop-color="#29cdff"/><stop offset=".379" stop-color="#148eff"/><stop offset="1" stop-color="#0a60ff"/></linearGradient><path d="M-213.1 533.3c.3-.9.4-2 .4-2.9 0-5.9-4.8-10.7-10.7-10.7-5.9 0-10.7 4.8-10.7 10.7 0 .5 0 1.2.1 1.7l-1.5 14-64 33.5-64-33.5-10.4-97.3c-1.1-10.9 2.3-19.6 10-26.1l-17 6.1c-9.3 3.3-15.1 12.5-14 22.4l10.4 97.3c.8 7.1 4.9 13.3 11.3 16.7l64 33.5c6.1 3.2 13.6 3.2 19.7 0l64-33.5c6.3-3.3 10.5-9.6 11.3-16.7l1.6-14.9-.5-.3z" fill="url(#d)"/></svg>